<svg xmlns="http://www.w3.org/2000/svg" version="1.1" xmlns:xlink="http://www.w3.org/1999/xlink" xmlns:svgjs="http://svgjs.com/svgjs" width="512" height="512" x="0" y="0" viewBox="0 0 512 512" style="enable-background:new 0 0 512 512" xml:space="preserve" class=""><g><linearGradient id="Blue_2" gradientUnits="userSpaceOnUse" x1="6" x2="506" y1="256" y2="256"><stop offset="0" stop-color="#2bc4f3"></stop><stop offset=".5" stop-color="#00aeee"></stop><stop offset="1" stop-color="#0095da"></stop></linearGradient><linearGradient id="linear-gradient" gradientUnits="userSpaceOnUse" x1="159.288" x2="433.636" y1="157.552" y2="431.901"><stop offset="0"></stop><stop offset="1" stop-opacity="0"></stop></linearGradient><circle cx="256" cy="256" fill="url(#Blue_2)" r="250" data-original="url(#Blue_2)"></circle><path d="m501.587 302.9-146.245-146.242c-24.042-24.273-57.737-38.547-96.309-38.547-79.9 0-139.569 59.149-139.569 138.107 0 38.788 14.561 72.85 38.929 97.389l147.422 147.423a250.259 250.259 0 0 0 195.772-198.13z" fill="url(#linear-gradient)" opacity=".49" data-original="url(#linear-gradient)" class=""></path><path d="m259.033 393.889c-79.9 0-139.569-59.15-139.569-137.672 0-78.957 59.671-138.106 139.569-138.106 68.8 0 122.079 45.409 132.748 111.969h-73.271c-9.011-26.922-31.692-44.4-59.319-44.4-37.17 0-64.434 29.888-64.434 70.535 0 40.489 27.264 69.945 64.434 69.945 29.126 0 52.024-18.979 59.377-48.15h73.968c-9.98 69.023-63.583 115.876-133.5 115.876z" fill="#ffffff" data-original="#ffffff" class=""></path></g></svg>